<mxfile host="app.diagrams.net" modified="2022-05-16T09:25:19.839Z" agent="5.0 (X11)" etag="D7t4FPzu9EeBwPZjzaNU" version="18.0.5" type="github">
  <diagram id="sdHl12aGgxhCoOVzmRbm" name="Page-1">
    <mxGraphModel dx="1673" dy="929" grid="1" gridSize="10" guides="1" tooltips="1" connect="1" arrows="1" fold="1" page="1" pageScale="1" pageWidth="10000" pageHeight="5000" math="0" shadow="0">
      <root>
        <mxCell id="0" />
        <mxCell id="1" parent="0" />
        <mxCell id="3J2q1XgpKWqCFiv-4bGi-29" style="edgeStyle=orthogonalEdgeStyle;rounded=0;orthogonalLoop=1;jettySize=auto;html=1;entryX=0.5;entryY=0;entryDx=0;entryDy=0;endArrow=none;endFill=0;" edge="1" parent="1" source="3J2q1XgpKWqCFiv-4bGi-1" target="3J2q1XgpKWqCFiv-4bGi-26">
          <mxGeometry relative="1" as="geometry" />
        </mxCell>
        <mxCell id="3J2q1XgpKWqCFiv-4bGi-1" value="&lt;div&gt;Musico&lt;/div&gt;&lt;br&gt;" style="rounded=0;whiteSpace=wrap;html=1;" vertex="1" parent="1">
          <mxGeometry x="100" y="190" width="120" height="60" as="geometry" />
        </mxCell>
        <mxCell id="3J2q1XgpKWqCFiv-4bGi-3" value="&lt;u&gt;BI&lt;/u&gt;" style="ellipse;whiteSpace=wrap;html=1;" vertex="1" parent="1">
          <mxGeometry x="110" y="140" width="40" height="40" as="geometry" />
        </mxCell>
        <mxCell id="3J2q1XgpKWqCFiv-4bGi-4" value="TEL" style="ellipse;whiteSpace=wrap;html=1;" vertex="1" parent="1">
          <mxGeometry x="170" y="140" width="40" height="40" as="geometry" />
        </mxCell>
        <mxCell id="3J2q1XgpKWqCFiv-4bGi-28" style="edgeStyle=orthogonalEdgeStyle;shape=link;rounded=0;orthogonalLoop=1;jettySize=auto;html=1;endArrow=none;endFill=0;" edge="1" parent="1" source="3J2q1XgpKWqCFiv-4bGi-5" target="3J2q1XgpKWqCFiv-4bGi-26">
          <mxGeometry relative="1" as="geometry" />
        </mxCell>
        <mxCell id="3J2q1XgpKWqCFiv-4bGi-51" style="edgeStyle=orthogonalEdgeStyle;rounded=0;orthogonalLoop=1;jettySize=auto;html=1;startArrow=none;startFill=0;endArrow=classic;endFill=1;shape=link;" edge="1" parent="1" source="3J2q1XgpKWqCFiv-4bGi-5" target="3J2q1XgpKWqCFiv-4bGi-46">
          <mxGeometry relative="1" as="geometry" />
        </mxCell>
        <mxCell id="3J2q1XgpKWqCFiv-4bGi-63" style="edgeStyle=orthogonalEdgeStyle;rounded=0;orthogonalLoop=1;jettySize=auto;html=1;entryX=0.5;entryY=0;entryDx=0;entryDy=0;startArrow=none;startFill=0;endArrow=classic;endFill=1;" edge="1" parent="1" source="3J2q1XgpKWqCFiv-4bGi-5" target="3J2q1XgpKWqCFiv-4bGi-62">
          <mxGeometry relative="1" as="geometry">
            <Array as="points">
              <mxPoint x="325" y="810" />
              <mxPoint x="325" y="885" />
            </Array>
          </mxGeometry>
        </mxCell>
        <mxCell id="3J2q1XgpKWqCFiv-4bGi-5" value="Instrumento" style="rounded=0;whiteSpace=wrap;html=1;" vertex="1" parent="1">
          <mxGeometry x="100" y="780" width="120" height="60" as="geometry" />
        </mxCell>
        <mxCell id="3J2q1XgpKWqCFiv-4bGi-6" value="&lt;u&gt;Nome&lt;/u&gt;" style="ellipse;whiteSpace=wrap;html=1;" vertex="1" parent="1">
          <mxGeometry x="60" y="790" width="40" height="40" as="geometry" />
        </mxCell>
        <mxCell id="3J2q1XgpKWqCFiv-4bGi-7" value="Tonalidade" style="ellipse;whiteSpace=wrap;html=1;" vertex="1" parent="1">
          <mxGeometry x="180" y="740" width="70" height="40" as="geometry" />
        </mxCell>
        <mxCell id="3J2q1XgpKWqCFiv-4bGi-31" style="edgeStyle=orthogonalEdgeStyle;rounded=0;orthogonalLoop=1;jettySize=auto;html=1;endArrow=none;endFill=0;startArrow=classic;startFill=1;" edge="1" parent="1" source="3J2q1XgpKWqCFiv-4bGi-32" target="3J2q1XgpKWqCFiv-4bGi-16">
          <mxGeometry relative="1" as="geometry" />
        </mxCell>
        <mxCell id="3J2q1XgpKWqCFiv-4bGi-67" style="edgeStyle=orthogonalEdgeStyle;rounded=0;orthogonalLoop=1;jettySize=auto;html=1;startArrow=none;startFill=0;endArrow=none;endFill=0;" edge="1" parent="1" source="3J2q1XgpKWqCFiv-4bGi-8" target="3J2q1XgpKWqCFiv-4bGi-66">
          <mxGeometry relative="1" as="geometry" />
        </mxCell>
        <mxCell id="3J2q1XgpKWqCFiv-4bGi-8" value="Album" style="rounded=0;whiteSpace=wrap;html=1;" vertex="1" parent="1">
          <mxGeometry x="490" y="350" width="120" height="60" as="geometry" />
        </mxCell>
        <mxCell id="3J2q1XgpKWqCFiv-4bGi-9" value="&lt;u&gt;ID&lt;/u&gt;" style="ellipse;whiteSpace=wrap;html=1;" vertex="1" parent="1">
          <mxGeometry x="410" y="300" width="40" height="40" as="geometry" />
        </mxCell>
        <mxCell id="3J2q1XgpKWqCFiv-4bGi-10" value="Titulo" style="ellipse;whiteSpace=wrap;html=1;" vertex="1" parent="1">
          <mxGeometry x="470" y="300" width="70" height="40" as="geometry" />
        </mxCell>
        <mxCell id="3J2q1XgpKWqCFiv-4bGi-11" value="Formato" style="ellipse;whiteSpace=wrap;html=1;" vertex="1" parent="1">
          <mxGeometry x="550" y="300" width="70" height="40" as="geometry" />
        </mxCell>
        <mxCell id="3J2q1XgpKWqCFiv-4bGi-12" value="&lt;div&gt;Data&lt;/div&gt;" style="ellipse;whiteSpace=wrap;html=1;" vertex="1" parent="1">
          <mxGeometry x="630" y="300" width="70" height="40" as="geometry" />
        </mxCell>
        <mxCell id="3J2q1XgpKWqCFiv-4bGi-13" value="&lt;div&gt;Morada&lt;/div&gt;" style="rounded=0;whiteSpace=wrap;html=1;" vertex="1" parent="1">
          <mxGeometry x="490" y="190" width="120" height="60" as="geometry" />
        </mxCell>
        <mxCell id="3J2q1XgpKWqCFiv-4bGi-15" value="&lt;u&gt;TEL&lt;/u&gt;" style="ellipse;whiteSpace=wrap;html=1;" vertex="1" parent="1">
          <mxGeometry x="530" y="150" width="40" height="40" as="geometry" />
        </mxCell>
        <mxCell id="3J2q1XgpKWqCFiv-4bGi-37" style="edgeStyle=orthogonalEdgeStyle;shape=link;rounded=0;orthogonalLoop=1;jettySize=auto;html=1;startArrow=classic;startFill=1;endArrow=classicThin;endFill=1;" edge="1" parent="1" source="3J2q1XgpKWqCFiv-4bGi-16" target="3J2q1XgpKWqCFiv-4bGi-35">
          <mxGeometry relative="1" as="geometry" />
        </mxCell>
        <mxCell id="3J2q1XgpKWqCFiv-4bGi-16" value="Musica" style="rounded=0;whiteSpace=wrap;html=1;" vertex="1" parent="1">
          <mxGeometry x="490" y="645" width="120" height="60" as="geometry" />
        </mxCell>
        <mxCell id="3J2q1XgpKWqCFiv-4bGi-17" value="&lt;u&gt;Nome&lt;/u&gt;" style="ellipse;whiteSpace=wrap;html=1;" vertex="1" parent="1">
          <mxGeometry x="530" y="705" width="40" height="40" as="geometry" />
        </mxCell>
        <mxCell id="3J2q1XgpKWqCFiv-4bGi-18" value="&lt;u&gt;Autor&lt;/u&gt;" style="ellipse;whiteSpace=wrap;html=1;" vertex="1" parent="1">
          <mxGeometry x="610" y="655" width="70" height="45" as="geometry" />
        </mxCell>
        <mxCell id="3J2q1XgpKWqCFiv-4bGi-23" style="edgeStyle=orthogonalEdgeStyle;rounded=0;orthogonalLoop=1;jettySize=auto;html=1;endArrow=none;endFill=0;shape=link;" edge="1" parent="1" source="3J2q1XgpKWqCFiv-4bGi-19">
          <mxGeometry relative="1" as="geometry">
            <mxPoint x="490" y="220" as="targetPoint" />
          </mxGeometry>
        </mxCell>
        <mxCell id="3J2q1XgpKWqCFiv-4bGi-19" value="" style="rhombus;whiteSpace=wrap;html=1;" vertex="1" parent="1">
          <mxGeometry x="320" y="195" width="50" height="50" as="geometry" />
        </mxCell>
        <mxCell id="3J2q1XgpKWqCFiv-4bGi-24" value="Moram &amp;gt;" style="text;html=1;align=center;verticalAlign=middle;resizable=0;points=[];autosize=1;strokeColor=none;fillColor=none;" vertex="1" parent="1">
          <mxGeometry x="315" y="175" width="60" height="20" as="geometry" />
        </mxCell>
        <mxCell id="3J2q1XgpKWqCFiv-4bGi-25" value="" style="shape=flexArrow;endArrow=classic;html=1;rounded=0;entryX=0;entryY=0.5;entryDx=0;entryDy=0;" edge="1" parent="1" source="3J2q1XgpKWqCFiv-4bGi-1" target="3J2q1XgpKWqCFiv-4bGi-19">
          <mxGeometry width="50" height="50" relative="1" as="geometry">
            <mxPoint x="190" y="410" as="sourcePoint" />
            <mxPoint x="240" y="360" as="targetPoint" />
            <Array as="points" />
          </mxGeometry>
        </mxCell>
        <mxCell id="3J2q1XgpKWqCFiv-4bGi-26" value="" style="rhombus;whiteSpace=wrap;html=1;" vertex="1" parent="1">
          <mxGeometry x="140" y="600" width="40" height="40" as="geometry" />
        </mxCell>
        <mxCell id="3J2q1XgpKWqCFiv-4bGi-27" value="Tocam &amp;gt; " style="text;html=1;align=center;verticalAlign=middle;resizable=0;points=[];autosize=1;strokeColor=none;fillColor=none;" vertex="1" parent="1">
          <mxGeometry x="170" y="625" width="60" height="20" as="geometry" />
        </mxCell>
        <mxCell id="3J2q1XgpKWqCFiv-4bGi-32" value="" style="rhombus;whiteSpace=wrap;html=1;" vertex="1" parent="1">
          <mxGeometry x="525" y="480" width="50" height="50" as="geometry" />
        </mxCell>
        <mxCell id="3J2q1XgpKWqCFiv-4bGi-33" value="" style="edgeStyle=orthogonalEdgeStyle;rounded=0;orthogonalLoop=1;jettySize=auto;html=1;endArrow=none;endFill=0;shape=link;" edge="1" parent="1" source="3J2q1XgpKWqCFiv-4bGi-8" target="3J2q1XgpKWqCFiv-4bGi-32">
          <mxGeometry relative="1" as="geometry">
            <mxPoint x="550" y="409.9999999999998" as="sourcePoint" />
            <mxPoint x="550" y="644.9999999999998" as="targetPoint" />
          </mxGeometry>
        </mxCell>
        <mxCell id="3J2q1XgpKWqCFiv-4bGi-34" value="Tem&amp;gt;" style="text;html=1;align=center;verticalAlign=middle;resizable=0;points=[];autosize=1;strokeColor=none;fillColor=none;" vertex="1" parent="1">
          <mxGeometry x="565" y="500" width="50" height="20" as="geometry" />
        </mxCell>
        <mxCell id="3J2q1XgpKWqCFiv-4bGi-38" style="edgeStyle=orthogonalEdgeStyle;shape=link;rounded=0;orthogonalLoop=1;jettySize=auto;html=1;entryX=0.82;entryY=1.075;entryDx=0;entryDy=0;entryPerimeter=0;startArrow=classic;startFill=1;endArrow=classicThin;endFill=1;width=2.9411764705882355;" edge="1" parent="1" source="3J2q1XgpKWqCFiv-4bGi-35" target="3J2q1XgpKWqCFiv-4bGi-1">
          <mxGeometry relative="1" as="geometry">
            <Array as="points">
              <mxPoint x="325" y="465" />
              <mxPoint x="200" y="465" />
              <mxPoint x="200" y="255" />
            </Array>
          </mxGeometry>
        </mxCell>
        <mxCell id="3J2q1XgpKWqCFiv-4bGi-35" value="" style="rhombus;whiteSpace=wrap;html=1;" vertex="1" parent="1">
          <mxGeometry x="300" y="530" width="50" height="50" as="geometry" />
        </mxCell>
        <mxCell id="3J2q1XgpKWqCFiv-4bGi-36" value="&lt;div&gt;Participam&lt;/div&gt;" style="text;html=1;align=center;verticalAlign=middle;resizable=0;points=[];autosize=1;strokeColor=none;fillColor=none;" vertex="1" parent="1">
          <mxGeometry x="344" y="545" width="70" height="20" as="geometry" />
        </mxCell>
        <mxCell id="3J2q1XgpKWqCFiv-4bGi-44" style="edgeStyle=orthogonalEdgeStyle;rounded=0;orthogonalLoop=1;jettySize=auto;html=1;entryX=1;entryY=1;entryDx=0;entryDy=0;startArrow=none;startFill=0;endArrow=classic;endFill=1;" edge="1" parent="1" source="3J2q1XgpKWqCFiv-4bGi-39" target="3J2q1XgpKWqCFiv-4bGi-1">
          <mxGeometry relative="1" as="geometry">
            <Array as="points">
              <mxPoint x="260" y="380" />
              <mxPoint x="260" y="250" />
            </Array>
          </mxGeometry>
        </mxCell>
        <mxCell id="3J2q1XgpKWqCFiv-4bGi-39" value="" style="rhombus;whiteSpace=wrap;html=1;" vertex="1" parent="1">
          <mxGeometry x="300" y="355" width="50" height="50" as="geometry" />
        </mxCell>
        <mxCell id="3J2q1XgpKWqCFiv-4bGi-40" value="Produz" style="text;html=1;align=center;verticalAlign=middle;resizable=0;points=[];autosize=1;strokeColor=none;fillColor=none;" vertex="1" parent="1">
          <mxGeometry x="300" y="330" width="50" height="20" as="geometry" />
        </mxCell>
        <mxCell id="3J2q1XgpKWqCFiv-4bGi-43" value="" style="shape=flexArrow;endArrow=classic;html=1;rounded=0;exitX=0;exitY=0.5;exitDx=0;exitDy=0;entryX=1;entryY=0.5;entryDx=0;entryDy=0;" edge="1" parent="1" source="3J2q1XgpKWqCFiv-4bGi-8" target="3J2q1XgpKWqCFiv-4bGi-39">
          <mxGeometry width="50" height="50" relative="1" as="geometry">
            <mxPoint x="320" y="450" as="sourcePoint" />
            <mxPoint x="370" y="400" as="targetPoint" />
          </mxGeometry>
        </mxCell>
        <mxCell id="3J2q1XgpKWqCFiv-4bGi-46" value="" style="triangle;whiteSpace=wrap;html=1;rotation=-90;" vertex="1" parent="1">
          <mxGeometry x="140" y="920" width="40" height="50" as="geometry" />
        </mxCell>
        <mxCell id="3J2q1XgpKWqCFiv-4bGi-47" value="Sopro" style="rounded=0;whiteSpace=wrap;html=1;" vertex="1" parent="1">
          <mxGeometry x="30" y="970" width="80" height="40" as="geometry" />
        </mxCell>
        <mxCell id="3J2q1XgpKWqCFiv-4bGi-48" value="Cordas" style="rounded=0;whiteSpace=wrap;html=1;" vertex="1" parent="1">
          <mxGeometry x="120" y="970" width="80" height="40" as="geometry" />
        </mxCell>
        <mxCell id="3J2q1XgpKWqCFiv-4bGi-61" style="edgeStyle=orthogonalEdgeStyle;shape=link;rounded=0;orthogonalLoop=1;jettySize=auto;html=1;startArrow=none;startFill=0;endArrow=classic;endFill=1;" edge="1" parent="1" source="3J2q1XgpKWqCFiv-4bGi-50" target="3J2q1XgpKWqCFiv-4bGi-54">
          <mxGeometry relative="1" as="geometry" />
        </mxCell>
        <mxCell id="3J2q1XgpKWqCFiv-4bGi-50" value="Percurssao" style="rounded=0;whiteSpace=wrap;html=1;" vertex="1" parent="1">
          <mxGeometry x="215" y="970" width="80" height="40" as="geometry" />
        </mxCell>
        <mxCell id="3J2q1XgpKWqCFiv-4bGi-53" value="Afin" style="ellipse;whiteSpace=wrap;html=1;" vertex="1" parent="1">
          <mxGeometry x="140" y="1010" width="40" height="40" as="geometry" />
        </mxCell>
        <mxCell id="3J2q1XgpKWqCFiv-4bGi-54" value="" style="triangle;whiteSpace=wrap;html=1;rotation=-90;" vertex="1" parent="1">
          <mxGeometry x="235" y="1030" width="40" height="50" as="geometry" />
        </mxCell>
        <mxCell id="3J2q1XgpKWqCFiv-4bGi-56" value="Ideo" style="rounded=0;whiteSpace=wrap;html=1;" vertex="1" parent="1">
          <mxGeometry x="180" y="1081" width="70" height="39" as="geometry" />
        </mxCell>
        <mxCell id="3J2q1XgpKWqCFiv-4bGi-57" value="Membrana" style="rounded=0;whiteSpace=wrap;html=1;" vertex="1" parent="1">
          <mxGeometry x="260" y="1080" width="80" height="40" as="geometry" />
        </mxCell>
        <mxCell id="3J2q1XgpKWqCFiv-4bGi-62" value="" style="triangle;whiteSpace=wrap;html=1;rotation=-90;" vertex="1" parent="1">
          <mxGeometry x="305" y="860" width="40" height="50" as="geometry" />
        </mxCell>
        <mxCell id="3J2q1XgpKWqCFiv-4bGi-64" value="Elect" style="rounded=0;whiteSpace=wrap;html=1;" vertex="1" parent="1">
          <mxGeometry x="285" y="910" width="80" height="40" as="geometry" />
        </mxCell>
        <mxCell id="3J2q1XgpKWqCFiv-4bGi-65" value="&lt;div&gt;Canal&lt;/div&gt;" style="rounded=0;whiteSpace=wrap;html=1;" vertex="1" parent="1">
          <mxGeometry x="830" y="360" width="80" height="40" as="geometry" />
        </mxCell>
        <mxCell id="3J2q1XgpKWqCFiv-4bGi-68" style="edgeStyle=orthogonalEdgeStyle;rounded=0;orthogonalLoop=1;jettySize=auto;html=1;entryX=0;entryY=0.5;entryDx=0;entryDy=0;startArrow=none;startFill=0;endArrow=none;endFill=0;" edge="1" parent="1" source="3J2q1XgpKWqCFiv-4bGi-66" target="3J2q1XgpKWqCFiv-4bGi-65">
          <mxGeometry relative="1" as="geometry" />
        </mxCell>
        <mxCell id="3J2q1XgpKWqCFiv-4bGi-66" value="" style="rhombus;whiteSpace=wrap;html=1;" vertex="1" parent="1">
          <mxGeometry x="700" y="355" width="50" height="50" as="geometry" />
        </mxCell>
        <mxCell id="3J2q1XgpKWqCFiv-4bGi-69" value="&lt;div&gt;Data&lt;/div&gt;" style="ellipse;whiteSpace=wrap;html=1;" vertex="1" parent="1">
          <mxGeometry x="705" y="410" width="40" height="40" as="geometry" />
        </mxCell>
        <mxCell id="3J2q1XgpKWqCFiv-4bGi-70" value="Publicado &amp;gt;" style="text;html=1;align=center;verticalAlign=middle;resizable=0;points=[];autosize=1;strokeColor=none;fillColor=none;" vertex="1" parent="1">
          <mxGeometry x="685" y="340" width="80" height="20" as="geometry" />
        </mxCell>
        <mxCell id="3J2q1XgpKWqCFiv-4bGi-71" value="&lt;u&gt;URL&lt;/u&gt;" style="ellipse;whiteSpace=wrap;html=1;" vertex="1" parent="1">
          <mxGeometry x="830" y="405" width="40" height="40" as="geometry" />
        </mxCell>
        <mxCell id="3J2q1XgpKWqCFiv-4bGi-72" value="Nome" style="ellipse;whiteSpace=wrap;html=1;" vertex="1" parent="1">
          <mxGeometry x="880" y="405" width="40" height="40" as="geometry" />
        </mxCell>
      </root>
    </mxGraphModel>
  </diagram>
</mxfile>
